<svg width="101" height="49" viewBox="0 0 101 49" fill="none" xmlns="http://www.w3.org/2000/svg">
<path d="M27.6421 18.1711C27.6421 22.2949 26.2407 25.7099 23.4378 28.4161C20.6349 31.1223 17.1555 32.4754 12.9995 32.4754C12.2263 32.4754 11.4853 32.3949 10.7766 32.2338C10.0678 32.1049 9.35902 31.8794 8.65025 31.5572V44.7017H12.0813C12.2747 44.7017 12.3713 44.7662 12.3713 44.895C12.3713 45.0561 12.2747 45.1367 12.0813 45.1367C12.0169 45.1367 11.8397 45.1367 11.5498 45.1367C11.292 45.1367 10.7282 45.1206 9.85838 45.0883C8.44084 45.0883 7.45822 45.0722 6.91053 45.04C6.39506 45.04 6.05678 45.04 5.8957 45.04C5.79905 45.04 5.62185 45.04 5.36412 45.04C5.10638 45.04 4.62313 45.0561 3.91436 45.0883C2.81898 45.0883 2.01356 45.0883 1.49809 45.0883C0.982616 45.1206 0.579905 45.1367 0.289952 45.1367C0.0966508 45.1367 0 45.0561 0 44.895C0 44.7662 0.0966508 44.7017 0.289952 44.7017C1.96523 44.7017 2.98007 44.4118 3.33445 43.8319C3.72106 43.252 3.91436 41.6572 3.91436 39.0477V14.0634C3.91436 13.1936 3.88214 12.517 3.81771 12.0338C3.75327 11.5183 3.64051 11.1317 3.47943 10.874C3.28613 10.584 3.01228 10.4068 2.6579 10.3424C2.33573 10.2457 1.62695 10.2941 0.531579 10.4874C0.306061 10.5196 0.193302 10.4713 0.193302 10.3424C0.193302 10.1813 0.306061 10.0847 0.531579 10.0524C1.40144 9.95579 2.44849 9.66584 3.67273 9.18258C4.89697 8.69933 6.2823 8.02278 7.82871 7.15292C7.92536 7.08848 8.08645 7.10459 8.31197 7.20124C8.5697 7.29789 8.69857 7.39454 8.69857 7.4912V12.3721C9.92281 10.729 11.3243 9.48865 12.9029 8.65101C14.5137 7.78115 16.2212 7.34622 18.0254 7.34622C20.8282 7.34622 23.1318 8.37716 24.9359 10.439C26.7401 12.4687 27.6421 15.0461 27.6421 18.1711ZM22.7613 20.3457C22.7613 17.0596 22.0525 14.4017 20.6349 12.3721C19.2496 10.3102 17.381 9.27923 15.0292 9.27923C13.8694 9.27923 12.7257 9.6014 11.5981 10.2457C10.5027 10.8901 9.53621 11.7922 8.69857 12.952V27.7395C9.72951 28.996 10.8088 29.9464 11.9364 30.5907C13.064 31.2029 14.2399 31.5089 15.4641 31.5089C17.8482 31.5089 19.6523 30.5585 20.8766 28.6577C22.133 26.7569 22.7613 23.9863 22.7613 20.3457Z" fill="#F4001F"/>
<path d="M15.1097 45.0175C14.2076 45.0498 13.531 45.0659 13.08 45.0659C12.6612 45.0659 12.3068 45.0659 12.0169 45.0659C11.8235 45.0659 11.7269 45.0014 11.7269 44.8726C11.7269 44.7115 11.8235 44.6309 12.0169 44.6309C13.1122 44.6309 13.7727 44.341 13.9982 43.7611C14.2237 43.149 14.3365 41.667 14.3365 39.3152V27.2821C14.3365 26.7344 14.1593 26.1706 13.8049 25.5907C13.4505 24.9786 12.8867 24.3182 12.1135 23.6094C12.0491 23.545 12.0169 23.4966 12.0169 23.4644C12.0169 23.4 12.0491 23.3517 12.1135 23.3194C12.7256 23.0939 13.5794 22.6912 14.6747 22.1113C15.7701 21.4992 16.495 21.0159 16.8494 20.6616C16.9138 20.5971 16.9621 20.581 16.9944 20.6132C17.0266 20.6132 17.0749 20.6454 17.1393 20.7099C17.6548 21.1931 18.1059 21.9341 18.4925 22.9328C18.8791 23.9316 19.0724 24.8981 19.0724 25.8324C20.4577 23.9316 21.843 22.5623 23.2283 21.7247C24.6137 20.8549 26.1279 20.4199 27.7709 20.4199C29.6717 20.4199 31.2504 20.8871 32.5068 21.8214C33.7633 22.7557 34.6009 24.0927 35.0197 25.8324C36.4051 23.9638 37.8065 22.5946 39.224 21.7247C40.6416 20.8549 42.1719 20.4199 43.815 20.4199C46.3923 20.4199 48.3414 21.2415 49.6623 22.8845C51.0154 24.5276 51.692 26.96 51.692 30.1817V41.9247C51.692 43.1812 51.8209 43.9544 52.0786 44.2443C52.3363 44.5343 52.9968 44.6632 54.0599 44.6309C54.2532 44.6309 54.3499 44.7115 54.3499 44.8726C54.3499 45.0014 54.2532 45.0659 54.0599 45.0659C53.8989 45.0659 53.6572 45.0659 53.3351 45.0659C53.0451 45.0659 52.5135 45.0498 51.7403 45.0175C50.7094 44.9853 49.9684 44.9692 49.5174 44.9692C49.0985 44.9692 48.7603 44.9692 48.5025 44.9692C48.4059 44.9692 48.2448 44.9692 48.0193 44.9692C47.7937 44.9692 47.4071 44.9853 46.8595 45.0175C45.9574 45.0498 45.2969 45.0659 44.8781 45.0659C44.4593 45.0659 44.1049 45.0659 43.815 45.0659C43.6217 45.0659 43.525 45.0014 43.525 44.8726C43.525 44.7115 43.6217 44.6309 43.815 44.6309C45.2647 44.6309 46.1346 44.3893 46.4245 43.9061C46.7145 43.3906 46.8595 41.9569 46.8595 39.6051V29.8434C46.8595 27.3949 46.3923 25.5263 45.458 24.2376C44.5237 22.949 43.2028 22.3046 41.4953 22.3046C40.2711 22.3046 39.2079 22.5785 38.3059 23.1261C37.4038 23.6738 36.3728 24.7531 35.213 26.3639V41.9247C35.213 43.0523 35.358 43.7933 35.648 44.1477C35.9701 44.5021 36.7272 44.6632 37.9193 44.6309C38.1126 44.6309 38.2092 44.7115 38.2092 44.8726C38.2092 45.0014 38.1126 45.0659 37.9193 45.0659C37.8548 45.0659 37.6937 45.0659 37.436 45.0659C37.1783 45.0659 36.6628 45.0498 35.8896 45.0175C34.6331 45.0175 33.7472 45.0175 33.2317 45.0175C32.7484 44.9853 32.4263 44.9692 32.2652 44.9692C32.1685 44.9692 32.0075 44.9692 31.7819 44.9692C31.5886 44.9692 31.202 44.9853 30.6221 45.0175C29.7523 45.0498 29.1079 45.0659 28.6891 45.0659C28.2703 45.0659 27.9159 45.0659 27.626 45.0659C27.4327 45.0659 27.336 45.0014 27.336 44.8726C27.336 44.7115 27.4327 44.6309 27.626 44.6309C28.9791 44.6309 29.7845 44.4054 30.0422 43.9544C30.3 43.4711 30.4288 42.0214 30.4288 39.6051V29.8434C30.4288 27.3627 30.01 25.4941 29.1724 24.2376C28.3347 22.949 27.0944 22.3046 25.4513 22.3046C24.1948 22.3046 23.0995 22.6107 22.1652 23.2228C21.2309 23.8027 20.2161 24.8336 19.1207 26.3156V44.6309H21.8752C22.0685 44.6309 22.1652 44.7115 22.1652 44.8726C22.1652 45.0014 22.0685 45.0659 21.8752 45.0659C21.8108 45.0659 21.6658 45.0659 21.4403 45.0659C21.2148 45.0659 20.7476 45.0498 20.0389 45.0175C18.9435 45.0175 18.1703 45.0175 17.7192 45.0175C17.2682 44.9853 16.9621 44.9692 16.8011 44.9692C16.7044 44.9692 16.5433 44.9692 16.3178 44.9692C16.0923 44.9692 15.6896 44.9853 15.1097 45.0175Z" fill="#F4001F"/>
<circle cx="31.5103" cy="15.5913" r="3.28001" transform="rotate(-29.7238 31.5103 15.5913)" fill="#F4001F"/>
<circle cx="37.2071" cy="12.3384" r="3.28001" transform="rotate(-29.7238 37.2071 12.3384)" fill="#F4001F"/>
<path d="M38.4894 21.1999L40.4168 12.9988L34.3586 13.9648L30.4472 18.6908L38.4894 21.1999Z" fill="#F4001F"/>
<path d="M27.0355 22.5913L27.5436 20.0504C28.1395 19.9478 28.0757 20.0986 28.6235 20.2409C28.3856 21.3369 28.2685 21.9916 27.7977 22.9724L27.0355 22.5913Z" fill="white"/>
<path d="M19.0952 31.6111V30.277C19.5399 29.7053 19.921 29.3877 19.921 29.3877V31.4204L19.0952 31.6111Z" fill="white"/>
<path d="M60.625 45.0415C58.8633 45.0415 57.5421 44.6858 56.6612 43.9743C55.8143 43.2629 55.3908 42.1957 55.3908 40.7728V22.8342H51.2746V21.5637C52.4603 21.4621 53.5614 21.0048 54.5777 20.1917C55.628 19.3447 56.5766 18.2775 57.4235 16.9902C58.3044 15.7028 59.0158 14.2968 59.5579 12.7723H60.9807V21.5637H66.8248V22.8342H60.9807V40.4171C60.9807 41.9416 61.6075 42.7039 62.861 42.7039C63.5724 42.7039 64.2161 42.4667 64.7921 41.9924C65.4019 41.4843 66.0286 40.6542 66.6723 39.5024L67.6887 40.0614C66.8417 41.9247 65.8762 43.229 64.7921 43.9743C63.708 44.6858 62.3189 45.0415 60.625 45.0415Z" fill="#F4001F"/>
<path d="M71.3459 43.2377V22.4025H76.9359V43.2377H71.3459ZM67.3313 44V42.7296H81.0013V44H67.3313ZM66.8232 22.8599V21.5894H76.9359V22.8599H66.8232ZM74.0393 13.6111C73.1246 13.6111 72.3284 13.2892 71.6508 12.6455C71.0072 11.968 70.6853 11.1718 70.6853 10.2571C70.6853 9.34238 71.0072 8.56318 71.6508 7.91949C72.3284 7.24192 73.1246 6.90314 74.0393 6.90314C74.954 6.90314 75.7332 7.24192 76.3769 7.91949C77.0544 8.56318 77.3932 9.34238 77.3932 10.2571C77.3932 11.1718 77.0544 11.968 76.3769 12.6455C75.7332 13.2892 74.954 13.6111 74.0393 13.6111Z" fill="#F4001F"/>
</svg>
